<mxfile host="app.diagrams.net" modified="2024-01-23T21:02:54.705Z" agent="Mozilla/5.0 (Macintosh; Intel Mac OS X 10_15_7) AppleWebKit/537.36 (KHTML, like Gecko) Chrome/120.0.0.0 Safari/537.36" etag="JTpVWjdgo99OzH5fTCDH" version="22.1.21" type="device">
  <diagram name="Page-1" id="wiqvjYzWOXX41bzFWbWP">
    <mxGraphModel dx="1893" dy="421" grid="1" gridSize="10" guides="1" tooltips="1" connect="1" arrows="1" fold="1" page="1" pageScale="1" pageWidth="1169" pageHeight="827" math="1" shadow="0">
      <root>
        <mxCell id="0" />
        <mxCell id="1" parent="0" />
        <mxCell id="_hNOkcOsogZEmMkvzFGR-111" value="&lt;b&gt;&lt;font style=&quot;font-size: 20px;&quot;&gt;Generator Variables&lt;br&gt;&lt;br&gt;&lt;/font&gt;&lt;/b&gt;" style="rounded=1;whiteSpace=wrap;html=1;fillColor=none;strokeColor=#000000;glass=0;shadow=0;strokeWidth=3;verticalAlign=top;movable=1;resizable=1;rotatable=1;deletable=1;editable=1;locked=0;connectable=1;opacity=80;imageHeight=24;arcSize=3;dashed=1;dashPattern=1 1;" parent="1" vertex="1">
          <mxGeometry x="9" y="920" width="700" height="640" as="geometry" />
        </mxCell>
        <mxCell id="_hNOkcOsogZEmMkvzFGR-71" value="" style="verticalLabelPosition=bottom;verticalAlign=top;html=1;shape=hexagon;perimeter=hexagonPerimeter2;arcSize=6;size=0.27;fillColor=#9dbcd3;strokeColor=#000000;strokeWidth=2;" parent="1" vertex="1">
          <mxGeometry x="19" y="1270" width="100" height="60" as="geometry" />
        </mxCell>
        <mxCell id="_hNOkcOsogZEmMkvzFGR-72" value="" style="verticalLabelPosition=bottom;verticalAlign=top;html=1;shape=hexagon;perimeter=hexagonPerimeter2;arcSize=6;size=0.27;fillColor=#9dbcd3;strokeColor=#000000;strokeWidth=2;" parent="1" vertex="1">
          <mxGeometry x="258" y="1270" width="100" height="60" as="geometry" />
        </mxCell>
        <mxCell id="_hNOkcOsogZEmMkvzFGR-73" value="" style="verticalLabelPosition=bottom;verticalAlign=top;html=1;shape=hexagon;perimeter=hexagonPerimeter2;arcSize=6;size=0.27;fillColor=#9dbcd3;strokeColor=#000000;strokeWidth=2;" parent="1" vertex="1">
          <mxGeometry x="139" y="1370" width="100" height="60" as="geometry" />
        </mxCell>
        <mxCell id="_hNOkcOsogZEmMkvzFGR-74" style="edgeStyle=orthogonalEdgeStyle;rounded=0;orthogonalLoop=1;jettySize=auto;html=1;entryX=1;entryY=0.5;entryDx=0;entryDy=0;endSize=6;strokeWidth=2;startArrow=classic;startFill=1;endArrow=none;endFill=0;targetPerimeterSpacing=0;sourcePerimeterSpacing=0;startSize=10;" parent="1" source="_hNOkcOsogZEmMkvzFGR-75" target="_hNOkcOsogZEmMkvzFGR-71" edge="1">
          <mxGeometry relative="1" as="geometry" />
        </mxCell>
        <mxCell id="_hNOkcOsogZEmMkvzFGR-75" value="" style="verticalLabelPosition=bottom;verticalAlign=top;html=1;shape=mxgraph.flowchart.on-page_reference;fillColor=#fdd199;strokeColor=#d6b656;" parent="1" vertex="1">
          <mxGeometry x="159" y="1270" width="60" height="60" as="geometry" />
        </mxCell>
        <mxCell id="_hNOkcOsogZEmMkvzFGR-97" style="edgeStyle=orthogonalEdgeStyle;rounded=0;orthogonalLoop=1;jettySize=auto;html=1;entryX=0.5;entryY=1;entryDx=0;entryDy=0;exitX=0.5;exitY=0;exitDx=0;exitDy=0;exitPerimeter=0;endSize=10;strokeWidth=2;" parent="1" source="_hNOkcOsogZEmMkvzFGR-75" target="_hNOkcOsogZEmMkvzFGR-83" edge="1">
          <mxGeometry relative="1" as="geometry" />
        </mxCell>
        <mxCell id="_hNOkcOsogZEmMkvzFGR-76" value="$$ \bigoplus $$" style="text;html=1;align=center;verticalAlign=middle;resizable=0;points=[];autosize=1;strokeColor=none;fillColor=none;fontStyle=1;fontSize=18;" parent="1" vertex="1">
          <mxGeometry x="114" y="1280" width="150" height="40" as="geometry" />
        </mxCell>
        <mxCell id="_hNOkcOsogZEmMkvzFGR-77" style="edgeStyle=orthogonalEdgeStyle;rounded=0;orthogonalLoop=1;jettySize=auto;html=1;entryX=0.5;entryY=1;entryDx=0;entryDy=0;entryPerimeter=0;endSize=10;strokeWidth=2;exitX=0.5;exitY=0;exitDx=0;exitDy=0;" parent="1" source="_hNOkcOsogZEmMkvzFGR-73" target="_hNOkcOsogZEmMkvzFGR-75" edge="1">
          <mxGeometry relative="1" as="geometry">
            <mxPoint x="259" y="1330" as="sourcePoint" />
            <Array as="points">
              <mxPoint x="189" y="1350" />
              <mxPoint x="189" y="1350" />
            </Array>
          </mxGeometry>
        </mxCell>
        <mxCell id="_hNOkcOsogZEmMkvzFGR-78" style="edgeStyle=orthogonalEdgeStyle;rounded=0;orthogonalLoop=1;jettySize=auto;html=1;entryX=1;entryY=0.5;entryDx=0;entryDy=0;entryPerimeter=0;endSize=10;strokeWidth=2;exitX=0;exitY=0.5;exitDx=0;exitDy=0;" parent="1" source="_hNOkcOsogZEmMkvzFGR-72" target="_hNOkcOsogZEmMkvzFGR-75" edge="1">
          <mxGeometry relative="1" as="geometry">
            <mxPoint x="245" y="1300" as="sourcePoint" />
            <mxPoint x="231.5" y="1300" as="targetPoint" />
            <Array as="points" />
          </mxGeometry>
        </mxCell>
        <mxCell id="_hNOkcOsogZEmMkvzFGR-79" value="&lt;font size=&quot;1&quot; style=&quot;&quot;&gt;&lt;b style=&quot;font-size: 20px;&quot;&gt;$$f_{t-1}$$&lt;/b&gt;&lt;/font&gt;" style="text;html=1;strokeColor=none;fillColor=none;align=center;verticalAlign=middle;whiteSpace=wrap;rounded=0;" parent="1" vertex="1">
          <mxGeometry x="39" y="1285" width="60" height="30" as="geometry" />
        </mxCell>
        <mxCell id="_hNOkcOsogZEmMkvzFGR-80" value="&lt;font size=&quot;1&quot; style=&quot;&quot;&gt;&lt;b style=&quot;font-size: 20px;&quot;&gt;$$z_t$$&lt;/b&gt;&lt;/font&gt;" style="text;html=1;strokeColor=none;fillColor=none;align=center;verticalAlign=middle;whiteSpace=wrap;rounded=0;" parent="1" vertex="1">
          <mxGeometry x="278" y="1285" width="60" height="30" as="geometry" />
        </mxCell>
        <mxCell id="_hNOkcOsogZEmMkvzFGR-81" value="&lt;font size=&quot;1&quot; style=&quot;&quot;&gt;&lt;b style=&quot;font-size: 20px;&quot;&gt;$$a_t$$&lt;/b&gt;&lt;/font&gt;" style="text;html=1;strokeColor=none;fillColor=none;align=center;verticalAlign=middle;whiteSpace=wrap;rounded=0;" parent="1" vertex="1">
          <mxGeometry x="159" y="1385" width="60" height="30" as="geometry" />
        </mxCell>
        <mxCell id="_hNOkcOsogZEmMkvzFGR-105" style="edgeStyle=orthogonalEdgeStyle;rounded=0;orthogonalLoop=1;jettySize=auto;html=1;exitX=1;exitY=0.5;exitDx=0;exitDy=0;entryX=0;entryY=0.75;entryDx=0;entryDy=0;strokeWidth=2;endSize=10;" parent="1" source="_hNOkcOsogZEmMkvzFGR-83" target="_hNOkcOsogZEmMkvzFGR-86" edge="1">
          <mxGeometry relative="1" as="geometry" />
        </mxCell>
        <mxCell id="_hNOkcOsogZEmMkvzFGR-83" value="" style="verticalLabelPosition=bottom;verticalAlign=top;html=1;shape=hexagon;perimeter=hexagonPerimeter2;arcSize=6;size=0.27;fillColor=#9dbcd3;strokeColor=#000000;strokeWidth=2;" parent="1" vertex="1">
          <mxGeometry x="139" y="1130" width="100" height="60" as="geometry" />
        </mxCell>
        <mxCell id="_hNOkcOsogZEmMkvzFGR-84" value="&lt;font size=&quot;1&quot; style=&quot;&quot;&gt;&lt;b style=&quot;font-size: 20px;&quot;&gt;$$i_t$$&lt;/b&gt;&lt;/font&gt;" style="text;html=1;strokeColor=none;fillColor=none;align=center;verticalAlign=middle;whiteSpace=wrap;rounded=0;" parent="1" vertex="1">
          <mxGeometry x="159" y="1145" width="60" height="30" as="geometry" />
        </mxCell>
        <mxCell id="_hNOkcOsogZEmMkvzFGR-104" style="edgeStyle=orthogonalEdgeStyle;rounded=0;orthogonalLoop=1;jettySize=auto;html=1;exitX=1;exitY=0.25;exitDx=0;exitDy=0;entryX=0;entryY=0.5;entryDx=0;entryDy=0;strokeWidth=2;endSize=10;dashed=1;" parent="1" source="_hNOkcOsogZEmMkvzFGR-86" target="_hNOkcOsogZEmMkvzFGR-88" edge="1">
          <mxGeometry relative="1" as="geometry" />
        </mxCell>
        <mxCell id="_hNOkcOsogZEmMkvzFGR-106" style="edgeStyle=orthogonalEdgeStyle;rounded=0;orthogonalLoop=1;jettySize=auto;html=1;exitX=1;exitY=0.75;exitDx=0;exitDy=0;entryX=0;entryY=0.5;entryDx=0;entryDy=0;strokeWidth=2;endSize=10;" parent="1" source="_hNOkcOsogZEmMkvzFGR-86" target="_hNOkcOsogZEmMkvzFGR-92" edge="1">
          <mxGeometry relative="1" as="geometry" />
        </mxCell>
        <mxCell id="_hNOkcOsogZEmMkvzFGR-86" value="&lt;b&gt;&lt;font style=&quot;font-size: 20px;&quot;&gt;$$LSTM_t$$&lt;/font&gt;&lt;/b&gt;" style="rounded=1;whiteSpace=wrap;html=1;glass=0;arcSize=6;strokeWidth=2;fillColor=#e5e5e5;" parent="1" vertex="1">
          <mxGeometry x="269" y="1010" width="120.31" height="200" as="geometry" />
        </mxCell>
        <mxCell id="_hNOkcOsogZEmMkvzFGR-88" value="" style="verticalLabelPosition=bottom;verticalAlign=top;html=1;shape=hexagon;perimeter=hexagonPerimeter2;arcSize=6;size=0.27;fontSize=20;fontStyle=1;fillColor=#9dbbd3;strokeColor=#000000;strokeWidth=2;" parent="1" vertex="1">
          <mxGeometry x="468.99999999999994" y="1030" width="100" height="60" as="geometry" />
        </mxCell>
        <mxCell id="_hNOkcOsogZEmMkvzFGR-103" style="edgeStyle=orthogonalEdgeStyle;rounded=0;orthogonalLoop=1;jettySize=auto;html=1;entryX=0;entryY=0.25;entryDx=0;entryDy=0;strokeWidth=2;endSize=10;dashed=1;" parent="1" source="_hNOkcOsogZEmMkvzFGR-89" target="_hNOkcOsogZEmMkvzFGR-86" edge="1">
          <mxGeometry relative="1" as="geometry">
            <mxPoint x="259" y="1051" as="targetPoint" />
          </mxGeometry>
        </mxCell>
        <mxCell id="_hNOkcOsogZEmMkvzFGR-89" value="" style="verticalLabelPosition=bottom;verticalAlign=top;html=1;shape=hexagon;perimeter=hexagonPerimeter2;arcSize=6;size=0.27;fontSize=20;fontStyle=1;fillColor=#9dbcd3;strokeColor=#000000;strokeWidth=2;" parent="1" vertex="1">
          <mxGeometry x="89" y="1030" width="100" height="60" as="geometry" />
        </mxCell>
        <mxCell id="_hNOkcOsogZEmMkvzFGR-90" value="&lt;font style=&quot;font-size: 20px;&quot;&gt;&lt;span style=&quot;font-size: 20px;&quot;&gt;$$C_{t-1}$$&lt;/span&gt;&lt;/font&gt;" style="text;html=1;strokeColor=none;fillColor=none;align=center;verticalAlign=middle;whiteSpace=wrap;rounded=0;fontSize=20;fontStyle=1" parent="1" vertex="1">
          <mxGeometry x="109" y="1045" width="60" height="30" as="geometry" />
        </mxCell>
        <mxCell id="_hNOkcOsogZEmMkvzFGR-91" value="&lt;font style=&quot;font-size: 20px;&quot;&gt;&lt;span style=&quot;font-size: 20px;&quot;&gt;$$C_{t}$$&lt;/span&gt;&lt;/font&gt;" style="text;html=1;strokeColor=none;fillColor=none;align=center;verticalAlign=middle;whiteSpace=wrap;rounded=0;fontSize=20;fontStyle=1" parent="1" vertex="1">
          <mxGeometry x="488.99999999999994" y="1045" width="60" height="30" as="geometry" />
        </mxCell>
        <mxCell id="_hNOkcOsogZEmMkvzFGR-107" style="edgeStyle=orthogonalEdgeStyle;rounded=0;orthogonalLoop=1;jettySize=auto;html=1;entryX=0;entryY=0.5;entryDx=0;entryDy=0;strokeWidth=2;endSize=10;" parent="1" source="_hNOkcOsogZEmMkvzFGR-92" target="_hNOkcOsogZEmMkvzFGR-94" edge="1">
          <mxGeometry relative="1" as="geometry" />
        </mxCell>
        <mxCell id="_hNOkcOsogZEmMkvzFGR-92" value="" style="verticalLabelPosition=bottom;verticalAlign=top;html=1;shape=hexagon;perimeter=hexagonPerimeter2;arcSize=6;size=0.27;fillColor=#9cbcd3;strokeColor=#000000;strokeWidth=2;" parent="1" vertex="1">
          <mxGeometry x="421.74999999999994" y="1130" width="100" height="60" as="geometry" />
        </mxCell>
        <mxCell id="_hNOkcOsogZEmMkvzFGR-93" value="&lt;font size=&quot;1&quot; style=&quot;&quot;&gt;&lt;b style=&quot;font-size: 20px;&quot;&gt;$$h_{t}$$&lt;/b&gt;&lt;/font&gt;" style="text;html=1;strokeColor=none;fillColor=none;align=center;verticalAlign=middle;whiteSpace=wrap;rounded=0;" parent="1" vertex="1">
          <mxGeometry x="441.74999999999994" y="1145" width="60" height="30" as="geometry" />
        </mxCell>
        <mxCell id="_hNOkcOsogZEmMkvzFGR-108" value="" style="edgeStyle=orthogonalEdgeStyle;rounded=0;orthogonalLoop=1;jettySize=auto;html=1;entryX=0.5;entryY=0;entryDx=0;entryDy=0;strokeWidth=2;endSize=10;" parent="1" source="_hNOkcOsogZEmMkvzFGR-94" target="_hNOkcOsogZEmMkvzFGR-95" edge="1">
          <mxGeometry relative="1" as="geometry" />
        </mxCell>
        <mxCell id="_hNOkcOsogZEmMkvzFGR-94" value="&lt;span&gt;&lt;font style=&quot;font-size: 20px;&quot;&gt;Output&lt;br&gt;Transformer&lt;br&gt;&lt;/font&gt;&lt;/span&gt;" style="rounded=1;whiteSpace=wrap;html=1;glass=0;arcSize=6;strokeWidth=2;fillColor=#e5e5e5;fontStyle=0" parent="1" vertex="1">
          <mxGeometry x="568.9999999999999" y="1110" width="120.31" height="100" as="geometry" />
        </mxCell>
        <mxCell id="_hNOkcOsogZEmMkvzFGR-95" value="" style="verticalLabelPosition=bottom;verticalAlign=top;html=1;shape=hexagon;perimeter=hexagonPerimeter2;arcSize=6;size=0.27;fillColor=#9cbcd3;strokeColor=#000000;strokeWidth=2;" parent="1" vertex="1">
          <mxGeometry x="579.15" y="1250" width="100" height="60" as="geometry" />
        </mxCell>
        <mxCell id="_hNOkcOsogZEmMkvzFGR-109" style="edgeStyle=orthogonalEdgeStyle;rounded=0;orthogonalLoop=1;jettySize=auto;html=1;entryX=0.5;entryY=0;entryDx=0;entryDy=0;exitX=0.5;exitY=1;exitDx=0;exitDy=0;strokeWidth=2;endSize=10;" parent="1" source="_hNOkcOsogZEmMkvzFGR-95" target="_hNOkcOsogZEmMkvzFGR-98" edge="1">
          <mxGeometry relative="1" as="geometry" />
        </mxCell>
        <mxCell id="_hNOkcOsogZEmMkvzFGR-96" value="&lt;span style=&quot;font-size: 20px;&quot;&gt;$$\boldsymbol{v}_t^{\mathbf{F}, \text { synth }}$$&lt;/span&gt;" style="text;html=1;strokeColor=none;fillColor=none;align=center;verticalAlign=middle;whiteSpace=wrap;rounded=0;fontSize=20;fontStyle=1" parent="1" vertex="1">
          <mxGeometry x="599.15" y="1265" width="60" height="30" as="geometry" />
        </mxCell>
        <mxCell id="_hNOkcOsogZEmMkvzFGR-110" style="edgeStyle=orthogonalEdgeStyle;rounded=0;orthogonalLoop=1;jettySize=auto;html=1;exitX=0.5;exitY=1;exitDx=0;exitDy=0;entryX=0.5;entryY=0;entryDx=0;entryDy=0;strokeWidth=2;endSize=10;" parent="1" source="_hNOkcOsogZEmMkvzFGR-98" target="_hNOkcOsogZEmMkvzFGR-101" edge="1">
          <mxGeometry relative="1" as="geometry" />
        </mxCell>
        <mxCell id="_hNOkcOsogZEmMkvzFGR-98" value="&lt;span&gt;&lt;font style=&quot;font-size: 20px;&quot;&gt;Input&lt;br&gt;Transformer&lt;br&gt;&lt;/font&gt;&lt;/span&gt;" style="rounded=1;whiteSpace=wrap;html=1;glass=0;arcSize=6;strokeWidth=2;fillColor=#e5e5e5;fontStyle=0" parent="1" vertex="1">
          <mxGeometry x="568.9999999999999" y="1345" width="120.31" height="100" as="geometry" />
        </mxCell>
        <mxCell id="_hNOkcOsogZEmMkvzFGR-101" value="" style="verticalLabelPosition=bottom;verticalAlign=top;html=1;shape=hexagon;perimeter=hexagonPerimeter2;arcSize=6;size=0.27;fillColor=#9dbcd3;strokeColor=#000000;strokeWidth=2;" parent="1" vertex="1">
          <mxGeometry x="579.15" y="1480" width="100" height="60" as="geometry" />
        </mxCell>
        <mxCell id="_hNOkcOsogZEmMkvzFGR-102" value="&lt;font size=&quot;1&quot; style=&quot;&quot;&gt;&lt;b style=&quot;font-size: 20px;&quot;&gt;$$f_t$$&lt;/b&gt;&lt;/font&gt;" style="text;html=1;strokeColor=none;fillColor=none;align=center;verticalAlign=middle;whiteSpace=wrap;rounded=0;" parent="1" vertex="1">
          <mxGeometry x="599.15" y="1495" width="60" height="30" as="geometry" />
        </mxCell>
        <mxCell id="_hNOkcOsogZEmMkvzFGR-113" value="" style="verticalLabelPosition=bottom;verticalAlign=top;html=1;shape=hexagon;perimeter=hexagonPerimeter2;arcSize=6;size=0.27;fillColor=#9cbcd3;strokeColor=#000000;strokeWidth=2;" parent="1" vertex="1">
          <mxGeometry x="789" y="1480" width="100" height="60" as="geometry" />
        </mxCell>
        <mxCell id="93irxrXW01IVTlg7gRJB-3" value="" style="verticalLabelPosition=bottom;verticalAlign=top;html=1;shape=hexagon;perimeter=hexagonPerimeter2;arcSize=6;size=0.27;fillColor=#9cbcd3;strokeColor=#000000;strokeWidth=2;" vertex="1" parent="1">
          <mxGeometry x="789" y="1250" width="100" height="60" as="geometry" />
        </mxCell>
        <mxCell id="93irxrXW01IVTlg7gRJB-4" style="edgeStyle=orthogonalEdgeStyle;rounded=0;orthogonalLoop=1;jettySize=auto;html=1;entryX=0.5;entryY=0;entryDx=0;entryDy=0;exitX=0.5;exitY=1;exitDx=0;exitDy=0;strokeWidth=2;endSize=10;" edge="1" parent="1" source="93irxrXW01IVTlg7gRJB-3" target="93irxrXW01IVTlg7gRJB-6">
          <mxGeometry relative="1" as="geometry" />
        </mxCell>
        <mxCell id="93irxrXW01IVTlg7gRJB-5" value="&lt;span style=&quot;font-size: 20px;&quot;&gt;$$\boldsymbol{v}_t^{\mathbf{F} }$$&lt;/span&gt;" style="text;html=1;strokeColor=none;fillColor=none;align=center;verticalAlign=middle;whiteSpace=wrap;rounded=0;fontSize=20;fontStyle=1" vertex="1" parent="1">
          <mxGeometry x="809" y="1265" width="60" height="30" as="geometry" />
        </mxCell>
        <mxCell id="93irxrXW01IVTlg7gRJB-6" value="&lt;span&gt;&lt;font style=&quot;font-size: 20px;&quot;&gt;Conditional input transformer&lt;br&gt;&lt;/font&gt;&lt;/span&gt;" style="rounded=1;whiteSpace=wrap;html=1;glass=0;arcSize=6;strokeWidth=2;fillColor=#e5e5e5;fontStyle=0" vertex="1" parent="1">
          <mxGeometry x="778.8499999999999" y="1345" width="120.31" height="100" as="geometry" />
        </mxCell>
        <mxCell id="93irxrXW01IVTlg7gRJB-7" style="edgeStyle=orthogonalEdgeStyle;rounded=0;orthogonalLoop=1;jettySize=auto;html=1;exitX=0.5;exitY=1;exitDx=0;exitDy=0;entryX=0.5;entryY=0;entryDx=0;entryDy=0;strokeWidth=2;endSize=10;" edge="1" parent="1">
          <mxGeometry relative="1" as="geometry">
            <mxPoint x="838.86" y="1445" as="sourcePoint" />
            <mxPoint x="838.86" y="1480" as="targetPoint" />
          </mxGeometry>
        </mxCell>
        <mxCell id="93irxrXW01IVTlg7gRJB-8" value="&lt;font size=&quot;1&quot; style=&quot;&quot;&gt;&lt;b style=&quot;font-size: 20px;&quot;&gt;$$f_t$$&lt;/b&gt;&lt;/font&gt;" style="text;html=1;strokeColor=none;fillColor=none;align=center;verticalAlign=middle;whiteSpace=wrap;rounded=0;" vertex="1" parent="1">
          <mxGeometry x="599.15" y="1495" width="60" height="30" as="geometry" />
        </mxCell>
        <mxCell id="93irxrXW01IVTlg7gRJB-9" value="&lt;font size=&quot;1&quot; style=&quot;&quot;&gt;&lt;b style=&quot;font-size: 20px;&quot;&gt;$$f_t$$&lt;/b&gt;&lt;/font&gt;" style="text;html=1;strokeColor=none;fillColor=none;align=center;verticalAlign=middle;whiteSpace=wrap;rounded=0;" vertex="1" parent="1">
          <mxGeometry x="809" y="1495" width="60" height="30" as="geometry" />
        </mxCell>
        <mxCell id="93irxrXW01IVTlg7gRJB-10" value="&lt;b&gt;&lt;font style=&quot;font-size: 20px;&quot;&gt;Conditional Input Variables&lt;br&gt;&lt;/font&gt;&lt;/b&gt;" style="rounded=1;whiteSpace=wrap;html=1;fillColor=none;strokeColor=#000000;glass=0;shadow=0;strokeWidth=3;verticalAlign=top;movable=1;resizable=1;rotatable=1;deletable=1;editable=1;locked=0;connectable=1;opacity=80;imageHeight=24;arcSize=3;dashed=1;dashPattern=1 1;" vertex="1" parent="1">
          <mxGeometry x="720" y="920" width="200" height="640" as="geometry" />
        </mxCell>
      </root>
    </mxGraphModel>
  </diagram>
</mxfile>
